<svg fill="#ffffff" version="1.1" id="webs" xmlns="http://www.w3.org/2000/svg" xmlns:xlink="http://www.w3.org/1999/xlink" x="0px" y="0px"
	 width="120px" height="40px" viewBox="0 0 120 40" enable-background="new 0 0 120 40" xml:space="preserve">
<g>
	<path id="w" d="M41.904,12.95c0-0.315-0.054-0.616-0.165-0.89c-0.199-0.519-0.636-0.924-1.175-1.14
		c-0.235-0.1-0.488-0.149-0.741-0.149c-0.587,0-1.125,0.262-1.559,0.657c-0.442,0.399-0.801,0.94-1.071,1.593l0.563,0.215
		l-0.563-0.214c-0.005,0.01-1.7,4.147-3.476,8.473c-1.289,3.145-2.617,6.388-3.357,8.19c-1.794-4.155-6.892-15.932-6.892-15.933
		l-0.103-0.254c-0.152-0.346-0.293-0.714-0.574-1.053c-0.271-0.345-0.768-0.617-1.326-0.604c-0.042,0-0.09,0.001-0.142,0.004
		c-0.663,0.032-1.177,0.394-1.461,0.78c-0.294,0.387-0.433,0.797-0.538,1.08L19.23,13.95c-1.637,4.002-5.128,11.982-6.804,15.786
		c-1.561-4.101-4.946-12.929-6.558-16.843c-0.312-0.759-0.738-1.277-1.217-1.589c-0.476-0.316-0.982-0.413-1.377-0.412
		C2.92,10.893,2.64,10.959,2.47,11.012c-0.57,0.176-1.015,0.608-1.251,1.148C1.071,12.494,1,12.857,1,13.233
		c0,0.434,0.094,0.881,0.271,1.325l2.205,5.626c2.209,5.633,5.23,13.347,6.818,17.21c0.182,0.438,0.418,0.81,0.713,1.096
		c0.292,0.285,0.664,0.505,1.125,0.511c0.058,0,0.112-0.003,0.16-0.009c0.267-0.034,0.608-0.112,0.928-0.332
		c0.323-0.217,0.598-0.561,0.795-1.029c0.001-0.002,1.574-3.754,3.333-7.953c1.419-3.384,2.96-7.059,3.895-9.292
		c0.773,1.83,2.18,5.153,3.546,8.382c1.867,4.42,3.661,8.665,3.661,8.665c0.196,0.446,0.407,0.807,0.729,1.082
		c0.32,0.281,0.756,0.414,1.168,0.405c0.282,0,0.659-0.036,1.017-0.255c0.357-0.219,0.644-0.579,0.85-1.076
		c2.255-5.358,7.339-17.836,9.271-22.802C41.751,14.096,41.9,13.5,41.904,12.95z"/>
	<path id="e" d="M62.602,12.61c-1.961-1.117-4.271-1.675-6.823-1.675c-4.039-0.003-7.529,1.349-10.253,3.995
		c-2.73,2.641-4.125,6.033-4.119,9.96c-0.005,3.926,1.375,7.328,4.088,9.995c2.703,2.666,6.196,4.035,10.26,4.035
		c0.008,0,0.019,0,0.025,0c1.856,0,3.673-0.309,5.408-0.917c1.392-0.491,3.049-1.153,4.482-2.332l0.011-0.01l0.01-0.009
		c0.634-0.59,0.922-1.431,0.928-2.232c-0.002-0.5-0.117-1.002-0.426-1.417c-0.188-0.269-0.696-0.726-1.502-0.72
		c-0.433,0-0.92,0.124-1.461,0.409l-0.076,0.041l-0.015,0.014c-0.087,0.049-0.254,0.146-0.254,0.146
		c-0.856,0.495-1.372,0.789-2.739,1.365c-1.453,0.609-2.916,0.908-4.372,0.908c-1.84,0-3.492-0.443-4.948-1.321
		c-1.224-0.735-2.237-1.754-3.045-3.038c1.358-0.791,5.167-3.02,8.926-5.213c4.535-2.649,8.995-5.255,8.995-5.255l0.235-0.139
		c0.255-0.148,0.446-0.25,0.645-0.428c0.201-0.178,0.338-0.453,0.388-0.69C67,17.947,67,17.839,67,17.758
		c-0.012-0.551-0.229-1.066-0.483-1.473C65.5,14.75,64.177,13.509,62.602,12.61z M55.764,15.542c1.268,0,2.383,0.205,3.331,0.591
		c0.575,0.235,1.084,0.542,1.535,0.92c-2.539,1.495-11.402,6.708-14.299,8.413l-0.013-0.606c0.006-2.635,0.918-4.823,2.75-6.625
		C50.901,16.441,53.115,15.547,55.764,15.542z M45.707,24.871L45.707,24.871L45.707,24.871L45.707,24.871z"/>
	<path id="b" d="M84.198,10.758c-2.265,0-4.4,0.514-6.33,1.527c-1.182,0.618-2.261,1.425-3.236,2.384V3.378
		c0-0.697-0.26-1.364-0.779-1.828c-0.399-0.36-0.936-0.553-1.49-0.55c-0.062,0-0.125,0.003-0.193,0.008l0,0
		c-0.675,0.049-1.284,0.317-1.701,0.774C70.05,2.239,69.84,2.851,69.84,3.514v20.89c-0.004,4.217,1.345,7.772,4.025,10.457
		c2.672,2.694,6.198,4.064,10.342,4.057c0.008,0,0.015,0,0.021,0c4.046,0,7.547-1.379,10.278-4.069
		c2.742-2.69,4.148-6.108,4.143-10.048c0.006-3.938-1.4-7.348-4.148-10.011C91.751,12.119,88.249,10.756,84.198,10.758z
		 M77.409,31.57c-1.849-1.811-2.773-4.052-2.777-6.756c0.004-2.616,0.935-4.83,2.81-6.696c1.873-1.856,4.108-2.768,6.757-2.776
		c2.65,0.006,4.879,0.915,6.758,2.763c1.869,1.854,2.798,4.079,2.804,6.708c-0.006,2.634-0.934,4.855-2.804,6.714
		c-1.881,1.845-4.107,2.76-6.758,2.763C81.514,34.288,79.272,33.387,77.409,31.57L77.409,31.57z M72.218,1.591L72.218,1.591
		L72.218,1.591L72.218,1.591z"/>
	<path id="s" d="M117.155,25.312c-1.211-1.307-2.99-2.271-5.255-2.91l-1.668-0.424
		c-1.6-0.379-2.76-0.885-3.479-1.449c-0.718-0.57-1.01-1.143-1.016-1.85c0.008-1.08,0.349-1.805,1.108-2.448
		c0.763-0.63,1.806-0.968,3.193-0.971c0.802,0,1.645,0.179,2.509,0.544l0.87,0.457l0.614,0.34c0.511,0.265,1.027,0.406,1.53,0.406
		c0.665,0.002,1.32-0.265,1.742-0.786c0.352-0.429,0.524-0.968,0.524-1.521c0-0.159-0.017-0.323-0.046-0.481
		c-0.105-0.579-0.369-1.103-0.868-1.423c-0.896-0.552-1.669-0.942-2.43-1.221c-1.371-0.512-2.854-0.768-4.39-0.767
		c-2.601-0.001-4.857,0.761-6.596,2.272l0.407,0.435l0,0l-0.407-0.433c-1.747,1.512-2.666,3.476-2.659,5.702
		c-0.007,2.088,0.668,3.846,2.021,5.099c1.357,1.244,3.601,2.175,6.894,2.995c1.741,0.422,2.914,0.974,3.442,1.494
		c0.518,0.504,0.802,1.212,0.805,2.231c-0.009,1.148-0.37,1.959-1.166,2.659c-0.789,0.694-1.822,1.055-3.185,1.058
		c-1.105,0-2.13-0.229-3.09-0.689c-0.455-0.216-0.908-0.498-1.398-0.868c-0.775-0.586-1.534-0.937-2.314-0.939
		c-0.668-0.006-1.296,0.293-1.757,0.785c-0.364,0.38-0.583,0.867-0.58,1.378c0,0.023,0,0.059,0.003,0.099
		c0.045,0.861,0.594,1.604,1.483,2.394c0.608,0.529,1.342,0.979,2.283,1.411c1.551,0.718,3.296,1.076,5.168,1.075
		c0.006,0,0.011,0,0.018,0c2.668,0,4.988-0.836,6.787-2.477c1.813-1.643,2.752-3.796,2.745-6.265
		C119.002,28.318,118.382,26.636,117.155,25.312z"/>
</g>
</svg>
